<?xml version="1.0" ?><!DOCTYPE svg  PUBLIC '-//W3C//DTD SVG 1.1//EN'  'http://www.w3.org/Graphics/SVG/1.1/DTD/svg11.dtd'><svg height="512px" style="enable-background:new 0 0 512 512;" version="1.1" viewBox="0 0 512 512" width="512px" xml:space="preserve" xmlns="http://www.w3.org/2000/svg" xmlns:xlink="http://www.w3.org/1999/xlink"><g id="facebook__x2C_"><path d="M492.871,374.968c0,65.432-53.089,118.482-118.585,118.482H137.149   c-65.477,0-118.546-53.051-118.546-118.482V138.009c0-65.451,53.069-118.483,118.546-118.483h237.137   c65.496,0,118.585,53.032,118.585,118.483V374.968z" style="fill:#235B9E;"/><path d="M216.217,404.588h59.284c0,0,0-81.765,0-148.096h43.998l5.404-59.241h-47.126v-23.681   c0-11.551,7.699-14.232,13.104-14.232c5.423,0,33.271,0,33.271,0v-50.756l-45.795-0.192c-50.831,0-62.391,37.855-62.391,62.095   v26.767H186.57v59.241h29.647C216.217,323.613,216.217,404.588,216.217,404.588z" style="fill:#FFFFFF;"/><path d="M216.217,404.588h59.284c0,0,0-81.765,0-148.096h43.998l5.404-59.241h-47.126v-23.681   c0-11.551,7.699-14.232,13.104-14.232c5.423,0,33.271,0,33.271,0v-50.756l-45.795-0.192c-50.831,0-62.391,37.855-62.391,62.095   v26.767H186.57v59.241h29.647C216.217,323.613,216.217,404.588,216.217,404.588z" style="fill:#FFFFFF;"/><path d="M278.356,108.389l45.795,0.192v50.756c0,0-27.848,0-33.271,0c-5.404,0-13.104,2.681-13.104,14.232   v23.681h47.126l-5.404,59.241h-43.998c0,66.332,0,148.096,0,148.096h-59.284c0,0,0-80.975,0-148.096H186.57V197.25h29.396v-26.767   C215.966,146.244,227.525,108.389,278.356,108.389 M278.356,98.512c-32.226,0-49.435,14.117-58.197,25.96   c-12.243,16.547-14.071,35.931-14.071,46.012v16.89H186.57c-5.455,0-9.877,4.422-9.877,9.877v59.241   c0,5.455,4.422,9.877,9.877,9.877h19.77v138.219c0,5.455,4.422,9.877,9.877,9.877h59.284c5.455,0,9.877-4.422,9.877-9.877V266.369   h34.121c5.107,0,9.372-3.895,9.836-8.98l5.404-59.241c0.252-2.764-0.67-5.507-2.541-7.557c-1.872-2.05-4.52-3.218-7.295-3.218   h-37.249v-13.804c0-2.266,0.474-3.454,0.879-3.784c0.35-0.284,1.211-0.571,2.348-0.571h33.271c5.455,0,9.877-4.422,9.877-9.877   v-50.756c0-5.439-4.396-9.854-9.835-9.877l-45.795-0.192C278.384,98.512,278.37,98.512,278.356,98.512L278.356,98.512z" style="fill:#1A4477;"/><path d="M364.039,478.061H147.415c-62.448,0-113.253-50.818-113.253-113.283V148.179   c0-62.454,50.805-113.263,113.253-113.263h216.624c62.459,0,113.272,50.81,113.272,113.263v216.599   C477.312,427.242,426.498,478.061,364.039,478.061z M147.415,44.818c-56.988,0-103.351,46.367-103.351,103.36v216.599   c0,57.004,46.363,103.381,103.351,103.381h216.624c56.998,0,103.37-46.377,103.37-103.381V148.179   c0-56.993-46.372-103.36-103.37-103.36H147.415z" style="fill:#1A4477;"/></g><g id="Layer_1"/></svg>